# xmcd CD database file
#
# Track frame offsets:
#	150
#	46350
#	72900
#	99900
#	142650
#
# Disc length: 2529 seconds
#
# Revision: 0
# Processed by: cddbd v1.5.1PL2 Copyright (c) Steve Scherf et al.
# Submitted via: CDex 1.51
#
DISCID=3809df05
DTITLE=Alex Skolnick Trio - 2005-06-17 The Knitting Factory New York, Ny
DYEAR=2005
DGENRE=Jazz
TTITLE0=Still Loving You
TTITLE1=Transformation
TTITLE2=Fear Of Flying
TTITLE3=Detroit Rock City
TTITLE4=Electric Eye
EXTD=YEAR: 2005
EXTT0=
EXTT1=
EXTT2=
EXTT3=
EXTT4=
PLAYORDER=
